<mxfile host="app.diagrams.net" agent="Mozilla/5.0 (Windows NT 10.0; Win64; x64) AppleWebKit/537.36 (KHTML, like Gecko) Chrome/135.0.0.0 Safari/537.36" version="26.2.9">
  <diagram name="第 1 页" id="Fj61eVcG0aGDND_bpaBV">
    <mxGraphModel dx="1654" dy="1282" grid="0" gridSize="10" guides="1" tooltips="1" connect="1" arrows="1" fold="1" page="0" pageScale="1" pageWidth="827" pageHeight="1169" math="0" shadow="0">
      <root>
        <mxCell id="0" />
        <mxCell id="1" parent="0" />
        <mxCell id="bP38wD7Q0idlnA3Jdsdp-37" value="" style="rounded=0;whiteSpace=wrap;html=1;fillColor=none;dashed=1;dashPattern=8 8;" vertex="1" parent="1">
          <mxGeometry x="1312" y="1906" width="647" height="448" as="geometry" />
        </mxCell>
        <mxCell id="lBdk9qtxuzmNU9C4Q0Ab-1" value="开始" style="ellipse;whiteSpace=wrap;html=1;aspect=fixed;" parent="1" vertex="1">
          <mxGeometry x="500.5" y="251" width="80" height="80" as="geometry" />
        </mxCell>
        <mxCell id="lBdk9qtxuzmNU9C4Q0Ab-4" style="edgeStyle=orthogonalEdgeStyle;rounded=0;orthogonalLoop=1;jettySize=auto;html=1;exitX=0.5;exitY=1;exitDx=0;exitDy=0;entryX=0.5;entryY=0;entryDx=0;entryDy=0;entryPerimeter=0;" parent="1" source="lBdk9qtxuzmNU9C4Q0Ab-1" target="lBdk9qtxuzmNU9C4Q0Ab-5" edge="1">
          <mxGeometry relative="1" as="geometry" />
        </mxCell>
        <mxCell id="lBdk9qtxuzmNU9C4Q0Ab-5" value="当前PVE追击案件总数&amp;lt;=A" style="strokeWidth=2;html=1;shape=mxgraph.flowchart.decision;whiteSpace=wrap;" parent="1" vertex="1">
          <mxGeometry x="424" y="386" width="233" height="73" as="geometry" />
        </mxCell>
        <mxCell id="lBdk9qtxuzmNU9C4Q0Ab-6" value="当前PVE追击案件总数A：暂定3&lt;div&gt;&lt;br&gt;&lt;/div&gt;&lt;div&gt;(避免追击案件过多&lt;/div&gt;" style="shape=document;whiteSpace=wrap;html=1;boundedLbl=1;" parent="1" vertex="1">
          <mxGeometry x="741" y="382.5" width="211" height="80" as="geometry" />
        </mxCell>
        <mxCell id="-TOpqSOfv_H1Qqij2RZm-7" style="edgeStyle=orthogonalEdgeStyle;rounded=0;orthogonalLoop=1;jettySize=auto;html=1;exitX=0.5;exitY=1;exitDx=0;exitDy=0;exitPerimeter=0;entryX=0.5;entryY=0;entryDx=0;entryDy=0;" parent="1" source="-TOpqSOfv_H1Qqij2RZm-1" target="Y34pRE13ypVC61gBzhvJ-32" edge="1">
          <mxGeometry relative="1" as="geometry">
            <mxPoint x="540.5" y="991" as="targetPoint" />
          </mxGeometry>
        </mxCell>
        <mxCell id="Y34pRE13ypVC61gBzhvJ-35" value="Y" style="edgeLabel;html=1;align=center;verticalAlign=middle;resizable=0;points=[];" parent="-TOpqSOfv_H1Qqij2RZm-7" vertex="1" connectable="0">
          <mxGeometry x="-0.0975" relative="1" as="geometry">
            <mxPoint as="offset" />
          </mxGeometry>
        </mxCell>
        <mxCell id="Y34pRE13ypVC61gBzhvJ-39" style="edgeStyle=orthogonalEdgeStyle;rounded=0;orthogonalLoop=1;jettySize=auto;html=1;exitX=0;exitY=0.5;exitDx=0;exitDy=0;exitPerimeter=0;entryX=0;entryY=0.5;entryDx=0;entryDy=0;" parent="1" source="-TOpqSOfv_H1Qqij2RZm-1" target="Y34pRE13ypVC61gBzhvJ-36" edge="1">
          <mxGeometry relative="1" as="geometry">
            <Array as="points">
              <mxPoint x="378" y="576" />
              <mxPoint x="378" y="919" />
            </Array>
          </mxGeometry>
        </mxCell>
        <mxCell id="Y34pRE13ypVC61gBzhvJ-47" value="N" style="edgeLabel;html=1;align=center;verticalAlign=middle;resizable=0;points=[];" parent="Y34pRE13ypVC61gBzhvJ-39" vertex="1" connectable="0">
          <mxGeometry x="-0.0962" y="-3" relative="1" as="geometry">
            <mxPoint x="3" as="offset" />
          </mxGeometry>
        </mxCell>
        <mxCell id="-TOpqSOfv_H1Qqij2RZm-1" value="当前是否有职业等级&lt;div&gt;匹配的玩家在线&lt;/div&gt;" style="strokeWidth=2;html=1;shape=mxgraph.flowchart.decision;whiteSpace=wrap;" parent="1" vertex="1">
          <mxGeometry x="424" y="538" width="233" height="77" as="geometry" />
        </mxCell>
        <mxCell id="-TOpqSOfv_H1Qqij2RZm-2" style="edgeStyle=orthogonalEdgeStyle;rounded=0;orthogonalLoop=1;jettySize=auto;html=1;exitX=0.5;exitY=1;exitDx=0;exitDy=0;exitPerimeter=0;entryX=0.5;entryY=0;entryDx=0;entryDy=0;entryPerimeter=0;" parent="1" source="lBdk9qtxuzmNU9C4Q0Ab-5" target="-TOpqSOfv_H1Qqij2RZm-1" edge="1">
          <mxGeometry relative="1" as="geometry">
            <mxPoint x="540.5" y="465" as="sourcePoint" />
          </mxGeometry>
        </mxCell>
        <mxCell id="-TOpqSOfv_H1Qqij2RZm-3" value="Y" style="edgeLabel;html=1;align=center;verticalAlign=middle;resizable=0;points=[];" parent="-TOpqSOfv_H1Qqij2RZm-2" vertex="1" connectable="0">
          <mxGeometry x="-0.0723" y="-2" relative="1" as="geometry">
            <mxPoint as="offset" />
          </mxGeometry>
        </mxCell>
        <mxCell id="-TOpqSOfv_H1Qqij2RZm-4" value="每个案件配置职业等级&lt;div&gt;可以配范围区间&lt;span style=&quot;background-color: transparent; color: light-dark(rgb(0, 0, 0), rgb(255, 255, 255));&quot;&gt;[1,10]&lt;/span&gt;&lt;/div&gt;" style="shape=document;whiteSpace=wrap;html=1;boundedLbl=1;" parent="1" vertex="1">
          <mxGeometry x="741" y="536.5" width="211" height="80" as="geometry" />
        </mxCell>
        <mxCell id="-TOpqSOfv_H1Qqij2RZm-16" style="edgeStyle=orthogonalEdgeStyle;rounded=0;orthogonalLoop=1;jettySize=auto;html=1;exitX=1;exitY=0.5;exitDx=0;exitDy=0;entryX=0;entryY=0.5;entryDx=0;entryDy=0;" parent="1" source="-TOpqSOfv_H1Qqij2RZm-14" target="-TOpqSOfv_H1Qqij2RZm-15" edge="1">
          <mxGeometry relative="1" as="geometry" />
        </mxCell>
        <mxCell id="-TOpqSOfv_H1Qqij2RZm-14" value="开始" style="ellipse;whiteSpace=wrap;html=1;aspect=fixed;" parent="1" vertex="1">
          <mxGeometry x="292" y="-226" width="80" height="80" as="geometry" />
        </mxCell>
        <mxCell id="-TOpqSOfv_H1Qqij2RZm-17" style="edgeStyle=orthogonalEdgeStyle;rounded=0;orthogonalLoop=1;jettySize=auto;html=1;exitX=1;exitY=0.5;exitDx=0;exitDy=0;entryX=0;entryY=0.5;entryDx=0;entryDy=0;" parent="1" source="-TOpqSOfv_H1Qqij2RZm-15" target="-TOpqSOfv_H1Qqij2RZm-18" edge="1">
          <mxGeometry relative="1" as="geometry">
            <mxPoint x="670.689655172414" y="-185.9655172413793" as="targetPoint" />
          </mxGeometry>
        </mxCell>
        <mxCell id="-TOpqSOfv_H1Qqij2RZm-25" style="edgeStyle=orthogonalEdgeStyle;rounded=0;orthogonalLoop=1;jettySize=auto;html=1;exitX=0.5;exitY=1;exitDx=0;exitDy=0;entryX=0;entryY=0.5;entryDx=0;entryDy=0;" parent="1" source="-TOpqSOfv_H1Qqij2RZm-15" target="-TOpqSOfv_H1Qqij2RZm-21" edge="1">
          <mxGeometry relative="1" as="geometry" />
        </mxCell>
        <mxCell id="-TOpqSOfv_H1Qqij2RZm-26" value="刷出AI" style="edgeLabel;html=1;align=center;verticalAlign=middle;resizable=0;points=[];" parent="-TOpqSOfv_H1Qqij2RZm-25" vertex="1" connectable="0">
          <mxGeometry x="0.2433" y="-2" relative="1" as="geometry">
            <mxPoint as="offset" />
          </mxGeometry>
        </mxCell>
        <mxCell id="-TOpqSOfv_H1Qqij2RZm-15" value="&lt;div&gt;根据追击PVE条件判断&lt;/div&gt;&lt;div&gt;刷新案件&lt;/div&gt;" style="rounded=1;whiteSpace=wrap;html=1;absoluteArcSize=1;arcSize=14;strokeWidth=2;fillColor=#f0a30a;strokeColor=#BD7000;fontColor=#000000;" parent="1" vertex="1">
          <mxGeometry x="454.5" y="-222" width="148" height="72" as="geometry" />
        </mxCell>
        <mxCell id="-TOpqSOfv_H1Qqij2RZm-31" style="edgeStyle=orthogonalEdgeStyle;rounded=0;orthogonalLoop=1;jettySize=auto;html=1;exitX=1;exitY=0.5;exitDx=0;exitDy=0;entryX=0;entryY=0.5;entryDx=0;entryDy=0;" parent="1" source="-TOpqSOfv_H1Qqij2RZm-18" target="-TOpqSOfv_H1Qqij2RZm-30" edge="1">
          <mxGeometry relative="1" as="geometry" />
        </mxCell>
        <mxCell id="-TOpqSOfv_H1Qqij2RZm-18" value="警察玩家在MDT上&lt;div&gt;看到案件并加入&lt;/div&gt;" style="rounded=1;whiteSpace=wrap;html=1;absoluteArcSize=1;arcSize=14;strokeWidth=2;" parent="1" vertex="1">
          <mxGeometry x="697" y="-222" width="113" height="72" as="geometry" />
        </mxCell>
        <mxCell id="-TOpqSOfv_H1Qqij2RZm-19" value="&lt;span style=&quot;font-family: Helvetica; font-size: 12px; font-style: normal; font-variant-ligatures: normal; font-variant-caps: normal; font-weight: 400; letter-spacing: normal; orphans: 2; text-indent: 0px; text-transform: none; widows: 2; word-spacing: 0px; -webkit-text-stroke-width: 0px; white-space: normal; background-color: rgb(255, 255, 255); text-decoration-thickness: initial; text-decoration-style: initial; text-decoration-color: initial; float: none; display: inline !important;&quot;&gt;案件系统&lt;/span&gt;" style="text;whiteSpace=wrap;html=1;align=center;fontColor=#FF8000;" parent="1" vertex="1">
          <mxGeometry x="490.5" y="-247" width="76" height="25" as="geometry" />
        </mxCell>
        <mxCell id="-TOpqSOfv_H1Qqij2RZm-20" value="&lt;span style=&quot;font-family: Helvetica; font-size: 12px; font-style: normal; font-variant-ligatures: normal; font-variant-caps: normal; font-weight: 400; letter-spacing: normal; orphans: 2; text-indent: 0px; text-transform: none; widows: 2; word-spacing: 0px; -webkit-text-stroke-width: 0px; white-space: normal; background-color: rgb(255, 255, 255); text-decoration-thickness: initial; text-decoration-style: initial; text-decoration-color: initial; float: none; display: inline !important;&quot;&gt;玩家&lt;/span&gt;" style="text;whiteSpace=wrap;html=1;align=center;fontColor=#FF8000;" parent="1" vertex="1">
          <mxGeometry x="715.5" y="-247" width="76" height="25" as="geometry" />
        </mxCell>
        <mxCell id="-TOpqSOfv_H1Qqij2RZm-28" style="edgeStyle=orthogonalEdgeStyle;rounded=0;orthogonalLoop=1;jettySize=auto;html=1;exitX=1;exitY=0.5;exitDx=0;exitDy=0;entryX=0;entryY=0.5;entryDx=0;entryDy=0;" parent="1" source="-TOpqSOfv_H1Qqij2RZm-21" target="-TOpqSOfv_H1Qqij2RZm-27" edge="1">
          <mxGeometry relative="1" as="geometry" />
        </mxCell>
        <mxCell id="-TOpqSOfv_H1Qqij2RZm-35" value="开始移动" style="edgeLabel;html=1;align=center;verticalAlign=middle;resizable=0;points=[];" parent="-TOpqSOfv_H1Qqij2RZm-28" vertex="1" connectable="0">
          <mxGeometry x="-0.1501" y="2" relative="1" as="geometry">
            <mxPoint as="offset" />
          </mxGeometry>
        </mxCell>
        <mxCell id="-TOpqSOfv_H1Qqij2RZm-21" value="刷车&lt;div&gt;车上有司机和枪手&lt;/div&gt;" style="rounded=1;whiteSpace=wrap;html=1;absoluteArcSize=1;arcSize=14;strokeWidth=2;fillColor=#f0a30a;fontColor=#000000;strokeColor=#BD7000;" parent="1" vertex="1">
          <mxGeometry x="697" y="-92" width="113" height="72" as="geometry" />
        </mxCell>
        <mxCell id="-TOpqSOfv_H1Qqij2RZm-23" value="飞车党AI" style="text;whiteSpace=wrap;html=1;align=center;fontColor=#FF8000;" parent="1" vertex="1">
          <mxGeometry x="715.5" y="-20" width="76" height="25" as="geometry" />
        </mxCell>
        <mxCell id="-TOpqSOfv_H1Qqij2RZm-27" value="按照配置点位&lt;div&gt;顺次移动&lt;/div&gt;" style="rounded=1;whiteSpace=wrap;html=1;absoluteArcSize=1;arcSize=14;strokeWidth=2;fillColor=#f0a30a;fontColor=#000000;strokeColor=#BD7000;" parent="1" vertex="1">
          <mxGeometry x="967" y="-92" width="113" height="72" as="geometry" />
        </mxCell>
        <mxCell id="-TOpqSOfv_H1Qqij2RZm-29" value="飞车党AI" style="text;whiteSpace=wrap;html=1;align=center;fontColor=#FF8000;" parent="1" vertex="1">
          <mxGeometry x="985.5" y="-20" width="76" height="25" as="geometry" />
        </mxCell>
        <mxCell id="-TOpqSOfv_H1Qqij2RZm-33" style="edgeStyle=orthogonalEdgeStyle;rounded=0;orthogonalLoop=1;jettySize=auto;html=1;exitX=0.5;exitY=1;exitDx=0;exitDy=0;entryX=0.5;entryY=0;entryDx=0;entryDy=0;" parent="1" source="-TOpqSOfv_H1Qqij2RZm-30" target="-TOpqSOfv_H1Qqij2RZm-27" edge="1">
          <mxGeometry relative="1" as="geometry" />
        </mxCell>
        <mxCell id="-TOpqSOfv_H1Qqij2RZm-34" value="追" style="edgeLabel;html=1;align=center;verticalAlign=middle;resizable=0;points=[];" parent="-TOpqSOfv_H1Qqij2RZm-33" vertex="1" connectable="0">
          <mxGeometry x="-0.1478" y="1" relative="1" as="geometry">
            <mxPoint as="offset" />
          </mxGeometry>
        </mxCell>
        <mxCell id="-TOpqSOfv_H1Qqij2RZm-30" value="警察玩家开车追击" style="rounded=1;whiteSpace=wrap;html=1;absoluteArcSize=1;arcSize=14;strokeWidth=2;" parent="1" vertex="1">
          <mxGeometry x="967" y="-222" width="113" height="72" as="geometry" />
        </mxCell>
        <mxCell id="-TOpqSOfv_H1Qqij2RZm-32" value="&lt;span style=&quot;font-family: Helvetica; font-size: 12px; font-style: normal; font-variant-ligatures: normal; font-variant-caps: normal; font-weight: 400; letter-spacing: normal; orphans: 2; text-indent: 0px; text-transform: none; widows: 2; word-spacing: 0px; -webkit-text-stroke-width: 0px; white-space: normal; background-color: rgb(255, 255, 255); text-decoration-thickness: initial; text-decoration-style: initial; text-decoration-color: initial; float: none; display: inline !important;&quot;&gt;玩家&lt;/span&gt;" style="text;whiteSpace=wrap;html=1;align=center;fontColor=#FF8000;" parent="1" vertex="1">
          <mxGeometry x="985.5" y="-247" width="76" height="25" as="geometry" />
        </mxCell>
        <mxCell id="Y34pRE13ypVC61gBzhvJ-1" style="edgeStyle=orthogonalEdgeStyle;rounded=0;orthogonalLoop=1;jettySize=auto;html=1;exitX=1;exitY=0.5;exitDx=0;exitDy=0;exitPerimeter=0;entryX=0;entryY=0.5;entryDx=0;entryDy=0;entryPerimeter=0;" parent="1" source="-TOpqSOfv_H1Qqij2RZm-36" target="Y34pRE13ypVC61gBzhvJ-2" edge="1">
          <mxGeometry relative="1" as="geometry">
            <mxPoint x="1538.8000976562498" y="-55.799999999999955" as="targetPoint" />
          </mxGeometry>
        </mxCell>
        <mxCell id="Y34pRE13ypVC61gBzhvJ-3" value="N" style="edgeLabel;html=1;align=center;verticalAlign=middle;resizable=0;points=[];" parent="Y34pRE13ypVC61gBzhvJ-1" vertex="1" connectable="0">
          <mxGeometry x="-0.2634" relative="1" as="geometry">
            <mxPoint as="offset" />
          </mxGeometry>
        </mxCell>
        <mxCell id="Y34pRE13ypVC61gBzhvJ-6" style="edgeStyle=orthogonalEdgeStyle;rounded=0;orthogonalLoop=1;jettySize=auto;html=1;exitX=0.5;exitY=0;exitDx=0;exitDy=0;exitPerimeter=0;entryX=0.5;entryY=1;entryDx=0;entryDy=0;" parent="1" source="-TOpqSOfv_H1Qqij2RZm-36" target="Y34pRE13ypVC61gBzhvJ-5" edge="1">
          <mxGeometry relative="1" as="geometry" />
        </mxCell>
        <mxCell id="Y34pRE13ypVC61gBzhvJ-22" value="Y" style="edgeLabel;html=1;align=center;verticalAlign=middle;resizable=0;points=[];" parent="Y34pRE13ypVC61gBzhvJ-6" vertex="1" connectable="0">
          <mxGeometry x="-0.1308" y="1" relative="1" as="geometry">
            <mxPoint as="offset" />
          </mxGeometry>
        </mxCell>
        <mxCell id="-TOpqSOfv_H1Qqij2RZm-36" value="到达目标点之前，是否被击杀/逮捕" style="strokeWidth=2;html=1;shape=mxgraph.flowchart.decision;whiteSpace=wrap;" parent="1" vertex="1">
          <mxGeometry x="1168" y="-92.5" width="233" height="73" as="geometry" />
        </mxCell>
        <mxCell id="-TOpqSOfv_H1Qqij2RZm-37" style="edgeStyle=orthogonalEdgeStyle;rounded=0;orthogonalLoop=1;jettySize=auto;html=1;exitX=1;exitY=0.5;exitDx=0;exitDy=0;entryX=0;entryY=0.5;entryDx=0;entryDy=0;entryPerimeter=0;" parent="1" source="-TOpqSOfv_H1Qqij2RZm-27" target="-TOpqSOfv_H1Qqij2RZm-36" edge="1">
          <mxGeometry relative="1" as="geometry" />
        </mxCell>
        <mxCell id="Y34pRE13ypVC61gBzhvJ-8" style="edgeStyle=orthogonalEdgeStyle;rounded=0;orthogonalLoop=1;jettySize=auto;html=1;exitX=1;exitY=0.5;exitDx=0;exitDy=0;exitPerimeter=0;entryX=0;entryY=0.5;entryDx=0;entryDy=0;" parent="1" source="Y34pRE13ypVC61gBzhvJ-2" target="Y34pRE13ypVC61gBzhvJ-9" edge="1">
          <mxGeometry relative="1" as="geometry">
            <mxPoint x="1950.2299973060344" y="-56.31034482758628" as="targetPoint" />
          </mxGeometry>
        </mxCell>
        <mxCell id="Y34pRE13ypVC61gBzhvJ-2" value="是否到达终点" style="strokeWidth=2;html=1;shape=mxgraph.flowchart.decision;whiteSpace=wrap;" parent="1" vertex="1">
          <mxGeometry x="1526" y="-93" width="134" height="73" as="geometry" />
        </mxCell>
        <mxCell id="Y34pRE13ypVC61gBzhvJ-5" value="正常结算&lt;div&gt;案件结束&lt;/div&gt;" style="ellipse;whiteSpace=wrap;html=1;aspect=fixed;" parent="1" vertex="1">
          <mxGeometry x="1244.5" y="-222" width="80" height="80" as="geometry" />
        </mxCell>
        <mxCell id="Y34pRE13ypVC61gBzhvJ-9" value="执行逃脱行为" style="rounded=1;whiteSpace=wrap;html=1;absoluteArcSize=1;arcSize=14;strokeWidth=2;fillColor=#f0a30a;fontColor=#000000;strokeColor=#BD7000;" parent="1" vertex="1">
          <mxGeometry x="1729" y="-93" width="113" height="72" as="geometry" />
        </mxCell>
        <mxCell id="Y34pRE13ypVC61gBzhvJ-17" style="edgeStyle=orthogonalEdgeStyle;rounded=0;orthogonalLoop=1;jettySize=auto;html=1;exitX=1;exitY=0.5;exitDx=0;exitDy=0;exitPerimeter=0;entryX=0.5;entryY=1;entryDx=0;entryDy=0;" parent="1" source="Y34pRE13ypVC61gBzhvJ-10" target="Y34pRE13ypVC61gBzhvJ-9" edge="1">
          <mxGeometry relative="1" as="geometry">
            <Array as="points">
              <mxPoint x="2077" y="-57" />
              <mxPoint x="2077" y="23" />
              <mxPoint x="1786" y="23" />
            </Array>
          </mxGeometry>
        </mxCell>
        <mxCell id="Y34pRE13ypVC61gBzhvJ-18" value="N" style="edgeLabel;html=1;align=center;verticalAlign=middle;resizable=0;points=[];" parent="Y34pRE13ypVC61gBzhvJ-17" vertex="1" connectable="0">
          <mxGeometry x="-0.7412" y="-1" relative="1" as="geometry">
            <mxPoint as="offset" />
          </mxGeometry>
        </mxCell>
        <mxCell id="Y34pRE13ypVC61gBzhvJ-20" style="edgeStyle=orthogonalEdgeStyle;rounded=0;orthogonalLoop=1;jettySize=auto;html=1;exitX=0.5;exitY=0;exitDx=0;exitDy=0;exitPerimeter=0;" parent="1" source="Y34pRE13ypVC61gBzhvJ-10" target="Y34pRE13ypVC61gBzhvJ-19" edge="1">
          <mxGeometry relative="1" as="geometry" />
        </mxCell>
        <mxCell id="Y34pRE13ypVC61gBzhvJ-24" value="Y" style="edgeLabel;html=1;align=center;verticalAlign=middle;resizable=0;points=[];" parent="Y34pRE13ypVC61gBzhvJ-20" vertex="1" connectable="0">
          <mxGeometry x="-0.1363" y="3" relative="1" as="geometry">
            <mxPoint x="3" y="1" as="offset" />
          </mxGeometry>
        </mxCell>
        <mxCell id="Y34pRE13ypVC61gBzhvJ-10" value="脱离所有玩家&lt;div&gt;视野范围 X 秒&lt;/div&gt;" style="strokeWidth=2;html=1;shape=mxgraph.flowchart.decision;whiteSpace=wrap;" parent="1" vertex="1">
          <mxGeometry x="1923" y="-93.5" width="134" height="73" as="geometry" />
        </mxCell>
        <mxCell id="Y34pRE13ypVC61gBzhvJ-11" style="edgeStyle=orthogonalEdgeStyle;rounded=0;orthogonalLoop=1;jettySize=auto;html=1;exitX=1;exitY=0.5;exitDx=0;exitDy=0;entryX=0;entryY=0.5;entryDx=0;entryDy=0;entryPerimeter=0;" parent="1" source="Y34pRE13ypVC61gBzhvJ-9" target="Y34pRE13ypVC61gBzhvJ-10" edge="1">
          <mxGeometry relative="1" as="geometry" />
        </mxCell>
        <mxCell id="Y34pRE13ypVC61gBzhvJ-19" value="任务失败&lt;div&gt;案件结束&lt;/div&gt;" style="ellipse;whiteSpace=wrap;html=1;aspect=fixed;" parent="1" vertex="1">
          <mxGeometry x="1950" y="-222" width="80" height="80" as="geometry" />
        </mxCell>
        <mxCell id="Y34pRE13ypVC61gBzhvJ-21" value="飞车党AI" style="text;whiteSpace=wrap;html=1;align=center;fontColor=#FF8000;" parent="1" vertex="1">
          <mxGeometry x="1246.5" y="-12" width="76" height="25" as="geometry" />
        </mxCell>
        <mxCell id="Y34pRE13ypVC61gBzhvJ-23" value="飞车党AI" style="text;whiteSpace=wrap;html=1;align=center;fontColor=#FF8000;" parent="1" vertex="1">
          <mxGeometry x="1555" y="-12" width="76" height="25" as="geometry" />
        </mxCell>
        <mxCell id="Y34pRE13ypVC61gBzhvJ-25" value="飞车党AI" style="text;whiteSpace=wrap;html=1;align=center;fontColor=#FF8000;" parent="1" vertex="1">
          <mxGeometry x="1747.5" y="-12" width="76" height="25" as="geometry" />
        </mxCell>
        <mxCell id="Y34pRE13ypVC61gBzhvJ-26" value="飞车党AI" style="text;whiteSpace=wrap;html=1;align=center;fontColor=#FF8000;" parent="1" vertex="1">
          <mxGeometry x="1952" y="-20" width="76" height="25" as="geometry" />
        </mxCell>
        <mxCell id="Y34pRE13ypVC61gBzhvJ-30" value="单次补充案件数量范围：C 暂定[1,3]&amp;nbsp;&lt;div&gt;随机抽取一个数量。可配置上下限即可。&lt;/div&gt;" style="shape=document;whiteSpace=wrap;html=1;boundedLbl=1;" parent="1" vertex="1">
          <mxGeometry x="716.5" y="998.63" width="260" height="78.75" as="geometry" />
        </mxCell>
        <mxCell id="Y34pRE13ypVC61gBzhvJ-38" style="edgeStyle=orthogonalEdgeStyle;rounded=0;orthogonalLoop=1;jettySize=auto;html=1;exitX=0.5;exitY=1;exitDx=0;exitDy=0;entryX=0.5;entryY=0;entryDx=0;entryDy=0;" parent="1" source="Y34pRE13ypVC61gBzhvJ-32" target="Y34pRE13ypVC61gBzhvJ-36" edge="1">
          <mxGeometry relative="1" as="geometry" />
        </mxCell>
        <mxCell id="Y34pRE13ypVC61gBzhvJ-32" value="把当前不匹配&lt;div&gt;职业等级的案件&lt;/div&gt;&lt;div&gt;从随机池中剔除&lt;/div&gt;" style="rounded=1;whiteSpace=wrap;html=1;" parent="1" vertex="1">
          <mxGeometry x="480.5" y="722" width="120" height="60" as="geometry" />
        </mxCell>
        <mxCell id="Y34pRE13ypVC61gBzhvJ-41" style="edgeStyle=orthogonalEdgeStyle;rounded=0;orthogonalLoop=1;jettySize=auto;html=1;exitX=0.5;exitY=1;exitDx=0;exitDy=0;entryX=0.5;entryY=0;entryDx=0;entryDy=0;" parent="1" source="Y34pRE13ypVC61gBzhvJ-36" target="Y34pRE13ypVC61gBzhvJ-40" edge="1">
          <mxGeometry relative="1" as="geometry" />
        </mxCell>
        <mxCell id="Y34pRE13ypVC61gBzhvJ-36" value="把当前&lt;div&gt;在CD中的案件&lt;/div&gt;&lt;div&gt;从随机池中剔除&lt;/div&gt;" style="rounded=1;whiteSpace=wrap;html=1;" parent="1" vertex="1">
          <mxGeometry x="480.5" y="889" width="120" height="60" as="geometry" />
        </mxCell>
        <mxCell id="Y34pRE13ypVC61gBzhvJ-43" style="edgeStyle=orthogonalEdgeStyle;rounded=0;orthogonalLoop=1;jettySize=auto;html=1;exitX=0.5;exitY=1;exitDx=0;exitDy=0;entryX=0.5;entryY=0;entryDx=0;entryDy=0;" parent="1" source="Y34pRE13ypVC61gBzhvJ-40" target="Y34pRE13ypVC61gBzhvJ-42" edge="1">
          <mxGeometry relative="1" as="geometry" />
        </mxCell>
        <mxCell id="Y34pRE13ypVC61gBzhvJ-40" value="从随机池中&lt;div&gt;抽取C个案件并发布&lt;/div&gt;" style="rounded=1;whiteSpace=wrap;html=1;" parent="1" vertex="1">
          <mxGeometry x="480.5" y="1008" width="120" height="60" as="geometry" />
        </mxCell>
        <mxCell id="Y34pRE13ypVC61gBzhvJ-46" style="edgeStyle=orthogonalEdgeStyle;rounded=0;orthogonalLoop=1;jettySize=auto;html=1;exitX=0.5;exitY=1;exitDx=0;exitDy=0;entryX=0.5;entryY=0;entryDx=0;entryDy=0;" parent="1" source="Y34pRE13ypVC61gBzhvJ-42" target="Y34pRE13ypVC61gBzhvJ-45" edge="1">
          <mxGeometry relative="1" as="geometry" />
        </mxCell>
        <mxCell id="Y34pRE13ypVC61gBzhvJ-42" value="发布的案件进入CD：X" style="rounded=1;whiteSpace=wrap;html=1;" parent="1" vertex="1">
          <mxGeometry x="469.25" y="1111" width="142.5" height="60" as="geometry" />
        </mxCell>
        <mxCell id="Y34pRE13ypVC61gBzhvJ-44" value="案件CD X：暂定300 秒&lt;div&gt;&lt;br&gt;&lt;/div&gt;&lt;div&gt;(避免重复案件出现多次&lt;/div&gt;" style="shape=document;whiteSpace=wrap;html=1;boundedLbl=1;" parent="1" vertex="1">
          <mxGeometry x="716.5" y="1101.63" width="260" height="78.75" as="geometry" />
        </mxCell>
        <mxCell id="Y34pRE13ypVC61gBzhvJ-45" value="结束" style="ellipse;whiteSpace=wrap;html=1;aspect=fixed;" parent="1" vertex="1">
          <mxGeometry x="500.5" y="1211" width="80" height="80" as="geometry" />
        </mxCell>
        <mxCell id="_tA26rEIKO73f23lyRNM-1" value="开始" style="ellipse;whiteSpace=wrap;html=1;aspect=fixed;" parent="1" vertex="1">
          <mxGeometry x="1610" y="251" width="80" height="80" as="geometry" />
        </mxCell>
        <mxCell id="_tA26rEIKO73f23lyRNM-2" value="案件刷新流程" style="text;html=1;align=center;verticalAlign=middle;whiteSpace=wrap;rounded=0;" parent="1" vertex="1">
          <mxGeometry x="487" y="179" width="107" height="30" as="geometry" />
        </mxCell>
        <mxCell id="_tA26rEIKO73f23lyRNM-3" value="玩法流程" style="text;html=1;align=center;verticalAlign=middle;whiteSpace=wrap;rounded=0;" parent="1" vertex="1">
          <mxGeometry x="160" y="-197" width="107" height="30" as="geometry" />
        </mxCell>
        <mxCell id="_tA26rEIKO73f23lyRNM-4" value="警察复活逻辑" style="text;html=1;align=center;verticalAlign=middle;whiteSpace=wrap;rounded=0;" parent="1" vertex="1">
          <mxGeometry x="1596.5" y="179" width="107" height="30" as="geometry" />
        </mxCell>
        <mxCell id="_tA26rEIKO73f23lyRNM-5" value="当前是否处于&lt;div&gt;追击案件流程中&lt;/div&gt;" style="strokeWidth=2;html=1;shape=mxgraph.flowchart.decision;whiteSpace=wrap;" parent="1" vertex="1">
          <mxGeometry x="1583.25" y="394" width="133.5" height="77" as="geometry" />
        </mxCell>
        <mxCell id="_tA26rEIKO73f23lyRNM-6" style="edgeStyle=orthogonalEdgeStyle;rounded=0;orthogonalLoop=1;jettySize=auto;html=1;exitX=0.5;exitY=1;exitDx=0;exitDy=0;entryX=0.5;entryY=0;entryDx=0;entryDy=0;entryPerimeter=0;" parent="1" source="_tA26rEIKO73f23lyRNM-1" target="_tA26rEIKO73f23lyRNM-5" edge="1">
          <mxGeometry relative="1" as="geometry" />
        </mxCell>
        <mxCell id="_tA26rEIKO73f23lyRNM-11" style="edgeStyle=orthogonalEdgeStyle;rounded=0;orthogonalLoop=1;jettySize=auto;html=1;exitX=0.5;exitY=1;exitDx=0;exitDy=0;exitPerimeter=0;entryX=0.5;entryY=0;entryDx=0;entryDy=0;entryPerimeter=0;" parent="1" source="_tA26rEIKO73f23lyRNM-7" target="_tA26rEIKO73f23lyRNM-12" edge="1">
          <mxGeometry relative="1" as="geometry">
            <mxPoint x="1650" y="672" as="targetPoint" />
          </mxGeometry>
        </mxCell>
        <mxCell id="_tA26rEIKO73f23lyRNM-13" value="Y" style="edgeLabel;html=1;align=center;verticalAlign=middle;resizable=0;points=[];" parent="_tA26rEIKO73f23lyRNM-11" vertex="1" connectable="0">
          <mxGeometry x="-0.0409" relative="1" as="geometry">
            <mxPoint as="offset" />
          </mxGeometry>
        </mxCell>
        <mxCell id="_tA26rEIKO73f23lyRNM-7" value="玩家是否死亡" style="strokeWidth=2;html=1;shape=mxgraph.flowchart.decision;whiteSpace=wrap;" parent="1" vertex="1">
          <mxGeometry x="1583.25" y="522" width="133.5" height="63" as="geometry" />
        </mxCell>
        <mxCell id="_tA26rEIKO73f23lyRNM-8" style="edgeStyle=orthogonalEdgeStyle;rounded=0;orthogonalLoop=1;jettySize=auto;html=1;exitX=0.5;exitY=1;exitDx=0;exitDy=0;exitPerimeter=0;entryX=0.5;entryY=0;entryDx=0;entryDy=0;entryPerimeter=0;" parent="1" source="_tA26rEIKO73f23lyRNM-5" target="_tA26rEIKO73f23lyRNM-7" edge="1">
          <mxGeometry relative="1" as="geometry" />
        </mxCell>
        <mxCell id="_tA26rEIKO73f23lyRNM-10" value="Y" style="edgeLabel;html=1;align=center;verticalAlign=middle;resizable=0;points=[];" parent="_tA26rEIKO73f23lyRNM-8" vertex="1" connectable="0">
          <mxGeometry x="-0.1852" y="-1" relative="1" as="geometry">
            <mxPoint as="offset" />
          </mxGeometry>
        </mxCell>
        <mxCell id="_tA26rEIKO73f23lyRNM-9" value="玩家加入案件即处于案件流程中&lt;div&gt;当飞车党逃脱，或被逮捕/击杀时，案件结束&lt;/div&gt;&lt;div&gt;如果玩家中途切换身份应该也退出案件流程&lt;/div&gt;" style="shape=document;whiteSpace=wrap;html=1;boundedLbl=1;" parent="1" vertex="1">
          <mxGeometry x="1782" y="390.5" width="259" height="84" as="geometry" />
        </mxCell>
        <mxCell id="_tA26rEIKO73f23lyRNM-16" style="edgeStyle=orthogonalEdgeStyle;rounded=0;orthogonalLoop=1;jettySize=auto;html=1;exitX=0;exitY=0.5;exitDx=0;exitDy=0;exitPerimeter=0;entryX=0.5;entryY=0;entryDx=0;entryDy=0;" parent="1" source="_tA26rEIKO73f23lyRNM-12" target="_tA26rEIKO73f23lyRNM-14" edge="1">
          <mxGeometry relative="1" as="geometry" />
        </mxCell>
        <mxCell id="_tA26rEIKO73f23lyRNM-17" style="edgeStyle=orthogonalEdgeStyle;rounded=0;orthogonalLoop=1;jettySize=auto;html=1;exitX=1;exitY=0.5;exitDx=0;exitDy=0;exitPerimeter=0;entryX=0.5;entryY=0;entryDx=0;entryDy=0;" parent="1" source="_tA26rEIKO73f23lyRNM-12" target="_tA26rEIKO73f23lyRNM-15" edge="1">
          <mxGeometry relative="1" as="geometry" />
        </mxCell>
        <mxCell id="_tA26rEIKO73f23lyRNM-12" value="选择复活位置" style="strokeWidth=2;html=1;shape=mxgraph.flowchart.decision;whiteSpace=wrap;" parent="1" vertex="1">
          <mxGeometry x="1583.25" y="642" width="133.5" height="63" as="geometry" />
        </mxCell>
        <mxCell id="_tA26rEIKO73f23lyRNM-19" style="edgeStyle=orthogonalEdgeStyle;rounded=0;orthogonalLoop=1;jettySize=auto;html=1;exitX=0.5;exitY=1;exitDx=0;exitDy=0;" parent="1" source="_tA26rEIKO73f23lyRNM-14" target="_tA26rEIKO73f23lyRNM-18" edge="1">
          <mxGeometry relative="1" as="geometry" />
        </mxCell>
        <mxCell id="_tA26rEIKO73f23lyRNM-14" value="最近的指挥中心" style="rounded=1;whiteSpace=wrap;html=1;" parent="1" vertex="1">
          <mxGeometry x="1477" y="782" width="120" height="60" as="geometry" />
        </mxCell>
        <mxCell id="_tA26rEIKO73f23lyRNM-20" style="edgeStyle=orthogonalEdgeStyle;rounded=0;orthogonalLoop=1;jettySize=auto;html=1;exitX=0.5;exitY=1;exitDx=0;exitDy=0;entryX=0.5;entryY=0;entryDx=0;entryDy=0;" parent="1" source="_tA26rEIKO73f23lyRNM-15" target="_tA26rEIKO73f23lyRNM-18" edge="1">
          <mxGeometry relative="1" as="geometry" />
        </mxCell>
        <mxCell id="_tA26rEIKO73f23lyRNM-15" value="最近的警察局" style="rounded=1;whiteSpace=wrap;html=1;" parent="1" vertex="1">
          <mxGeometry x="1703" y="782" width="120" height="60" as="geometry" />
        </mxCell>
        <mxCell id="_tA26rEIKO73f23lyRNM-22" style="edgeStyle=orthogonalEdgeStyle;rounded=0;orthogonalLoop=1;jettySize=auto;html=1;exitX=0.5;exitY=1;exitDx=0;exitDy=0;entryX=0.5;entryY=0;entryDx=0;entryDy=0;" parent="1" source="_tA26rEIKO73f23lyRNM-18" target="_tA26rEIKO73f23lyRNM-23" edge="1">
          <mxGeometry relative="1" as="geometry">
            <mxPoint x="1650" y="1021" as="targetPoint" />
          </mxGeometry>
        </mxCell>
        <mxCell id="_tA26rEIKO73f23lyRNM-18" value="在玩家选择的位置&lt;div&gt;走重生逻辑&lt;/div&gt;" style="rounded=1;whiteSpace=wrap;html=1;" parent="1" vertex="1">
          <mxGeometry x="1590" y="932" width="120" height="60" as="geometry" />
        </mxCell>
        <mxCell id="_tA26rEIKO73f23lyRNM-23" value="结束" style="ellipse;whiteSpace=wrap;html=1;aspect=fixed;" parent="1" vertex="1">
          <mxGeometry x="1610" y="1049" width="80" height="80" as="geometry" />
        </mxCell>
        <mxCell id="NOMmsY5ElrjwkXrI579L-1" value="开始" style="ellipse;whiteSpace=wrap;html=1;aspect=fixed;" parent="1" vertex="1">
          <mxGeometry x="2493" y="251" width="80" height="80" as="geometry" />
        </mxCell>
        <mxCell id="NOMmsY5ElrjwkXrI579L-2" value="生成逻辑" style="text;html=1;align=center;verticalAlign=middle;whiteSpace=wrap;rounded=0;" parent="1" vertex="1">
          <mxGeometry x="2479.5" y="179" width="107" height="30" as="geometry" />
        </mxCell>
        <mxCell id="NOMmsY5ElrjwkXrI579L-3" value="当前的生成位置&lt;div&gt;是否被占用&lt;/div&gt;" style="strokeWidth=2;html=1;shape=mxgraph.flowchart.decision;whiteSpace=wrap;" parent="1" vertex="1">
          <mxGeometry x="2466.25" y="384" width="133.5" height="77" as="geometry" />
        </mxCell>
        <mxCell id="NOMmsY5ElrjwkXrI579L-4" style="edgeStyle=orthogonalEdgeStyle;rounded=0;orthogonalLoop=1;jettySize=auto;html=1;exitX=0.5;exitY=1;exitDx=0;exitDy=0;entryX=0.5;entryY=0;entryDx=0;entryDy=0;entryPerimeter=0;" parent="1" source="NOMmsY5ElrjwkXrI579L-1" target="NOMmsY5ElrjwkXrI579L-3" edge="1">
          <mxGeometry relative="1" as="geometry" />
        </mxCell>
        <mxCell id="NOMmsY5ElrjwkXrI579L-5" style="edgeStyle=orthogonalEdgeStyle;rounded=0;orthogonalLoop=1;jettySize=auto;html=1;exitX=0.5;exitY=1;exitDx=0;exitDy=0;exitPerimeter=0;entryX=0.5;entryY=0;entryDx=0;entryDy=0;entryPerimeter=0;" parent="1" source="NOMmsY5ElrjwkXrI579L-7" target="NOMmsY5ElrjwkXrI579L-13" edge="1">
          <mxGeometry relative="1" as="geometry">
            <mxPoint x="2533" y="672" as="targetPoint" />
          </mxGeometry>
        </mxCell>
        <mxCell id="NOMmsY5ElrjwkXrI579L-6" value="Y" style="edgeLabel;html=1;align=center;verticalAlign=middle;resizable=0;points=[];" parent="NOMmsY5ElrjwkXrI579L-5" vertex="1" connectable="0">
          <mxGeometry x="-0.0409" relative="1" as="geometry">
            <mxPoint as="offset" />
          </mxGeometry>
        </mxCell>
        <mxCell id="NOMmsY5ElrjwkXrI579L-7" value="当前的生成位置&lt;div&gt;是否会被玩家看到&lt;/div&gt;" style="strokeWidth=2;html=1;shape=mxgraph.flowchart.decision;whiteSpace=wrap;" parent="1" vertex="1">
          <mxGeometry x="2466.25" y="508.5" width="133.5" height="90" as="geometry" />
        </mxCell>
        <mxCell id="NOMmsY5ElrjwkXrI579L-8" style="edgeStyle=orthogonalEdgeStyle;rounded=0;orthogonalLoop=1;jettySize=auto;html=1;exitX=0.5;exitY=1;exitDx=0;exitDy=0;exitPerimeter=0;entryX=0.5;entryY=0;entryDx=0;entryDy=0;entryPerimeter=0;" parent="1" source="NOMmsY5ElrjwkXrI579L-3" target="NOMmsY5ElrjwkXrI579L-7" edge="1">
          <mxGeometry relative="1" as="geometry" />
        </mxCell>
        <mxCell id="NOMmsY5ElrjwkXrI579L-9" value="Y" style="edgeLabel;html=1;align=center;verticalAlign=middle;resizable=0;points=[];" parent="NOMmsY5ElrjwkXrI579L-8" vertex="1" connectable="0">
          <mxGeometry x="-0.1852" y="-1" relative="1" as="geometry">
            <mxPoint as="offset" />
          </mxGeometry>
        </mxCell>
        <mxCell id="NOMmsY5ElrjwkXrI579L-10" value="是否有足够生成的空间，&lt;div&gt;有人有车等动态阻挡物都算被占用。&lt;div&gt;检测面积 10*10M&lt;/div&gt;&lt;/div&gt;" style="shape=document;whiteSpace=wrap;html=1;boundedLbl=1;" parent="1" vertex="1">
          <mxGeometry x="2738" y="390.5" width="259" height="84" as="geometry" />
        </mxCell>
        <mxCell id="NOMmsY5ElrjwkXrI579L-11" style="edgeStyle=orthogonalEdgeStyle;rounded=0;orthogonalLoop=1;jettySize=auto;html=1;exitX=0;exitY=0.5;exitDx=0;exitDy=0;exitPerimeter=0;entryX=0.5;entryY=0;entryDx=0;entryDy=0;" parent="1" source="NOMmsY5ElrjwkXrI579L-13" target="NOMmsY5ElrjwkXrI579L-15" edge="1">
          <mxGeometry relative="1" as="geometry" />
        </mxCell>
        <mxCell id="NOMmsY5ElrjwkXrI579L-12" style="edgeStyle=orthogonalEdgeStyle;rounded=0;orthogonalLoop=1;jettySize=auto;html=1;exitX=1;exitY=0.5;exitDx=0;exitDy=0;exitPerimeter=0;entryX=0.5;entryY=0;entryDx=0;entryDy=0;" parent="1" source="NOMmsY5ElrjwkXrI579L-13" target="NOMmsY5ElrjwkXrI579L-17" edge="1">
          <mxGeometry relative="1" as="geometry" />
        </mxCell>
        <mxCell id="NOMmsY5ElrjwkXrI579L-13" value="选择复活位置" style="strokeWidth=2;html=1;shape=mxgraph.flowchart.decision;whiteSpace=wrap;" parent="1" vertex="1">
          <mxGeometry x="2466.25" y="642" width="133.5" height="63" as="geometry" />
        </mxCell>
        <mxCell id="NOMmsY5ElrjwkXrI579L-14" style="edgeStyle=orthogonalEdgeStyle;rounded=0;orthogonalLoop=1;jettySize=auto;html=1;exitX=0.5;exitY=1;exitDx=0;exitDy=0;" parent="1" source="NOMmsY5ElrjwkXrI579L-15" target="NOMmsY5ElrjwkXrI579L-19" edge="1">
          <mxGeometry relative="1" as="geometry" />
        </mxCell>
        <mxCell id="NOMmsY5ElrjwkXrI579L-15" value="最近的指挥中心" style="rounded=1;whiteSpace=wrap;html=1;" parent="1" vertex="1">
          <mxGeometry x="2360" y="782" width="120" height="60" as="geometry" />
        </mxCell>
        <mxCell id="NOMmsY5ElrjwkXrI579L-16" style="edgeStyle=orthogonalEdgeStyle;rounded=0;orthogonalLoop=1;jettySize=auto;html=1;exitX=0.5;exitY=1;exitDx=0;exitDy=0;entryX=0.5;entryY=0;entryDx=0;entryDy=0;" parent="1" source="NOMmsY5ElrjwkXrI579L-17" target="NOMmsY5ElrjwkXrI579L-19" edge="1">
          <mxGeometry relative="1" as="geometry" />
        </mxCell>
        <mxCell id="NOMmsY5ElrjwkXrI579L-17" value="最近的警察局" style="rounded=1;whiteSpace=wrap;html=1;" parent="1" vertex="1">
          <mxGeometry x="2586" y="782" width="120" height="60" as="geometry" />
        </mxCell>
        <mxCell id="NOMmsY5ElrjwkXrI579L-18" style="edgeStyle=orthogonalEdgeStyle;rounded=0;orthogonalLoop=1;jettySize=auto;html=1;exitX=0.5;exitY=1;exitDx=0;exitDy=0;entryX=0.5;entryY=0;entryDx=0;entryDy=0;" parent="1" source="NOMmsY5ElrjwkXrI579L-19" target="NOMmsY5ElrjwkXrI579L-20" edge="1">
          <mxGeometry relative="1" as="geometry">
            <mxPoint x="2533" y="1021" as="targetPoint" />
          </mxGeometry>
        </mxCell>
        <mxCell id="NOMmsY5ElrjwkXrI579L-19" value="在玩家选择的位置&lt;div&gt;走重生逻辑&lt;/div&gt;" style="rounded=1;whiteSpace=wrap;html=1;" parent="1" vertex="1">
          <mxGeometry x="2473" y="932" width="120" height="60" as="geometry" />
        </mxCell>
        <mxCell id="NOMmsY5ElrjwkXrI579L-20" value="结束" style="ellipse;whiteSpace=wrap;html=1;aspect=fixed;" parent="1" vertex="1">
          <mxGeometry x="2493" y="1049" width="80" height="80" as="geometry" />
        </mxCell>
        <mxCell id="NOMmsY5ElrjwkXrI579L-21" value="开始" style="ellipse;whiteSpace=wrap;html=1;aspect=fixed;" parent="1" vertex="1">
          <mxGeometry x="2128" y="558" width="80" height="80" as="geometry" />
        </mxCell>
        <mxCell id="bP38wD7Q0idlnA3Jdsdp-2" style="edgeStyle=orthogonalEdgeStyle;rounded=0;orthogonalLoop=1;jettySize=auto;html=1;exitX=1;exitY=0.5;exitDx=0;exitDy=0;entryX=0;entryY=0.5;entryDx=0;entryDy=0;" edge="1" parent="1" source="NOMmsY5ElrjwkXrI579L-22" target="bP38wD7Q0idlnA3Jdsdp-1">
          <mxGeometry relative="1" as="geometry" />
        </mxCell>
        <mxCell id="NOMmsY5ElrjwkXrI579L-22" value="警察查看MDT" style="rounded=0;whiteSpace=wrap;html=1;" parent="1" vertex="1">
          <mxGeometry x="560" y="2102" width="120" height="60" as="geometry" />
        </mxCell>
        <mxCell id="NOMmsY5ElrjwkXrI579L-23" value="视频演示" style="text;html=1;align=center;verticalAlign=middle;whiteSpace=wrap;rounded=0;" parent="1" vertex="1">
          <mxGeometry x="390" y="2023" width="60" height="30" as="geometry" />
        </mxCell>
        <mxCell id="NOMmsY5ElrjwkXrI579L-25" value="警察玩家视角" style="shape=umlActor;verticalLabelPosition=bottom;verticalAlign=top;html=1;outlineConnect=0;" parent="1" vertex="1">
          <mxGeometry x="487" y="2102" width="30" height="60" as="geometry" />
        </mxCell>
        <mxCell id="NOMmsY5ElrjwkXrI579L-26" value="路人玩家视角" style="shape=umlActor;verticalLabelPosition=bottom;verticalAlign=top;html=1;outlineConnect=0;" parent="1" vertex="1">
          <mxGeometry x="500.5" y="2359" width="30" height="60" as="geometry" />
        </mxCell>
        <mxCell id="bP38wD7Q0idlnA3Jdsdp-4" style="edgeStyle=orthogonalEdgeStyle;rounded=0;orthogonalLoop=1;jettySize=auto;html=1;exitX=1;exitY=0.5;exitDx=0;exitDy=0;entryX=0;entryY=0.5;entryDx=0;entryDy=0;" edge="1" parent="1" source="bP38wD7Q0idlnA3Jdsdp-1" target="bP38wD7Q0idlnA3Jdsdp-3">
          <mxGeometry relative="1" as="geometry" />
        </mxCell>
        <mxCell id="bP38wD7Q0idlnA3Jdsdp-1" value="发现有追击案件" style="rounded=0;whiteSpace=wrap;html=1;" vertex="1" parent="1">
          <mxGeometry x="762" y="2102" width="120" height="60" as="geometry" />
        </mxCell>
        <mxCell id="bP38wD7Q0idlnA3Jdsdp-3" value="点击查看案件详情" style="rounded=0;whiteSpace=wrap;html=1;" vertex="1" parent="1">
          <mxGeometry x="964" y="2102" width="120" height="60" as="geometry" />
        </mxCell>
        <mxCell id="bP38wD7Q0idlnA3Jdsdp-9" style="edgeStyle=orthogonalEdgeStyle;rounded=0;orthogonalLoop=1;jettySize=auto;html=1;exitX=0.5;exitY=0;exitDx=0;exitDy=0;exitPerimeter=0;entryX=0;entryY=0.5;entryDx=0;entryDy=0;" edge="1" parent="1" source="bP38wD7Q0idlnA3Jdsdp-5" target="bP38wD7Q0idlnA3Jdsdp-7">
          <mxGeometry relative="1" as="geometry" />
        </mxCell>
        <mxCell id="bP38wD7Q0idlnA3Jdsdp-10" style="edgeStyle=orthogonalEdgeStyle;rounded=0;orthogonalLoop=1;jettySize=auto;html=1;exitX=0.5;exitY=1;exitDx=0;exitDy=0;exitPerimeter=0;entryX=0;entryY=0.5;entryDx=0;entryDy=0;" edge="1" parent="1" source="bP38wD7Q0idlnA3Jdsdp-5" target="bP38wD7Q0idlnA3Jdsdp-8">
          <mxGeometry relative="1" as="geometry" />
        </mxCell>
        <mxCell id="bP38wD7Q0idlnA3Jdsdp-5" value="选择追击方式" style="strokeWidth=2;html=1;shape=mxgraph.flowchart.decision;whiteSpace=wrap;" vertex="1" parent="1">
          <mxGeometry x="1158" y="2101" width="134" height="62" as="geometry" />
        </mxCell>
        <mxCell id="bP38wD7Q0idlnA3Jdsdp-6" style="edgeStyle=orthogonalEdgeStyle;rounded=0;orthogonalLoop=1;jettySize=auto;html=1;exitX=1;exitY=0.5;exitDx=0;exitDy=0;entryX=0;entryY=0.5;entryDx=0;entryDy=0;entryPerimeter=0;" edge="1" parent="1" source="bP38wD7Q0idlnA3Jdsdp-3" target="bP38wD7Q0idlnA3Jdsdp-5">
          <mxGeometry relative="1" as="geometry" />
        </mxCell>
        <mxCell id="bP38wD7Q0idlnA3Jdsdp-7" value="直接追击目标" style="rounded=0;whiteSpace=wrap;html=1;" vertex="1" parent="1">
          <mxGeometry x="1392" y="1997" width="120" height="60" as="geometry" />
        </mxCell>
        <mxCell id="bP38wD7Q0idlnA3Jdsdp-8" value="提前布置路障拦截" style="rounded=0;whiteSpace=wrap;html=1;" vertex="1" parent="1">
          <mxGeometry x="1392" y="2207" width="120" height="60" as="geometry" />
        </mxCell>
        <mxCell id="bP38wD7Q0idlnA3Jdsdp-12" style="edgeStyle=orthogonalEdgeStyle;rounded=0;orthogonalLoop=1;jettySize=auto;html=1;exitX=1;exitY=0.5;exitDx=0;exitDy=0;entryX=0;entryY=0.5;entryDx=0;entryDy=0;" edge="1" parent="1" source="bP38wD7Q0idlnA3Jdsdp-7" target="bP38wD7Q0idlnA3Jdsdp-15">
          <mxGeometry relative="1" as="geometry">
            <mxPoint x="1586" y="2027" as="targetPoint" />
          </mxGeometry>
        </mxCell>
        <mxCell id="bP38wD7Q0idlnA3Jdsdp-30" style="edgeStyle=orthogonalEdgeStyle;rounded=0;orthogonalLoop=1;jettySize=auto;html=1;exitX=1;exitY=0.5;exitDx=0;exitDy=0;" edge="1" parent="1" source="bP38wD7Q0idlnA3Jdsdp-15" target="bP38wD7Q0idlnA3Jdsdp-23">
          <mxGeometry relative="1" as="geometry" />
        </mxCell>
        <mxCell id="bP38wD7Q0idlnA3Jdsdp-15" value="开到车前方截停" style="rounded=0;whiteSpace=wrap;html=1;" vertex="1" parent="1">
          <mxGeometry x="1745" y="1997" width="120" height="60" as="geometry" />
        </mxCell>
        <mxCell id="bP38wD7Q0idlnA3Jdsdp-18" style="edgeStyle=orthogonalEdgeStyle;rounded=0;orthogonalLoop=1;jettySize=auto;html=1;exitX=1;exitY=0.5;exitDx=0;exitDy=0;entryX=0;entryY=0.5;entryDx=0;entryDy=0;" edge="1" parent="1" source="bP38wD7Q0idlnA3Jdsdp-8" target="bP38wD7Q0idlnA3Jdsdp-19">
          <mxGeometry relative="1" as="geometry">
            <mxPoint x="1586" y="2237" as="targetPoint" />
          </mxGeometry>
        </mxCell>
        <mxCell id="bP38wD7Q0idlnA3Jdsdp-31" style="edgeStyle=orthogonalEdgeStyle;rounded=0;orthogonalLoop=1;jettySize=auto;html=1;exitX=1;exitY=0.5;exitDx=0;exitDy=0;" edge="1" parent="1" source="bP38wD7Q0idlnA3Jdsdp-19" target="bP38wD7Q0idlnA3Jdsdp-23">
          <mxGeometry relative="1" as="geometry" />
        </mxCell>
        <mxCell id="bP38wD7Q0idlnA3Jdsdp-19" value="尖刺带/路障拦截" style="rounded=0;whiteSpace=wrap;html=1;" vertex="1" parent="1">
          <mxGeometry x="1745" y="2207" width="120" height="60" as="geometry" />
        </mxCell>
        <mxCell id="bP38wD7Q0idlnA3Jdsdp-43" style="edgeStyle=orthogonalEdgeStyle;rounded=0;orthogonalLoop=1;jettySize=auto;html=1;exitX=1;exitY=0.5;exitDx=0;exitDy=0;exitPerimeter=0;entryX=0;entryY=0.5;entryDx=0;entryDy=0;" edge="1" parent="1" source="bP38wD7Q0idlnA3Jdsdp-23" target="bP38wD7Q0idlnA3Jdsdp-42">
          <mxGeometry relative="1" as="geometry" />
        </mxCell>
        <mxCell id="bP38wD7Q0idlnA3Jdsdp-23" value="停车后表现" style="strokeWidth=2;html=1;shape=mxgraph.flowchart.decision;whiteSpace=wrap;" vertex="1" parent="1">
          <mxGeometry x="2157" y="2100" width="134" height="64" as="geometry" />
        </mxCell>
        <mxCell id="bP38wD7Q0idlnA3Jdsdp-38" value="包含载具射击部分" style="text;html=1;align=center;verticalAlign=middle;whiteSpace=wrap;rounded=0;" vertex="1" parent="1">
          <mxGeometry x="1555" y="1876" width="179" height="30" as="geometry" />
        </mxCell>
        <mxCell id="bP38wD7Q0idlnA3Jdsdp-46" style="edgeStyle=orthogonalEdgeStyle;rounded=0;orthogonalLoop=1;jettySize=auto;html=1;exitX=1;exitY=0.5;exitDx=0;exitDy=0;entryX=0;entryY=0.5;entryDx=0;entryDy=0;" edge="1" parent="1" source="bP38wD7Q0idlnA3Jdsdp-42" target="bP38wD7Q0idlnA3Jdsdp-45">
          <mxGeometry relative="1" as="geometry" />
        </mxCell>
        <mxCell id="bP38wD7Q0idlnA3Jdsdp-42" value="匪徒战斗表现" style="swimlane;whiteSpace=wrap;html=1;" vertex="1" parent="1">
          <mxGeometry x="2375" y="1874" width="289" height="516" as="geometry" />
        </mxCell>
        <mxCell id="bP38wD7Q0idlnA3Jdsdp-33" value="飞车党主动下车，投降，然后被逮捕" style="rounded=0;whiteSpace=wrap;html=1;" vertex="1" parent="bP38wD7Q0idlnA3Jdsdp-42">
          <mxGeometry x="36" y="69" width="217" height="60" as="geometry" />
        </mxCell>
        <mxCell id="bP38wD7Q0idlnA3Jdsdp-34" value="飞车党主动下车 逃跑" style="rounded=0;whiteSpace=wrap;html=1;" vertex="1" parent="bP38wD7Q0idlnA3Jdsdp-42">
          <mxGeometry x="36" y="176" width="217" height="60" as="geometry" />
        </mxCell>
        <mxCell id="bP38wD7Q0idlnA3Jdsdp-35" value="飞车党主动下车 跟警察对射" style="rounded=0;whiteSpace=wrap;html=1;" vertex="1" parent="bP38wD7Q0idlnA3Jdsdp-42">
          <mxGeometry x="36" y="284" width="217" height="60" as="geometry" />
        </mxCell>
        <mxCell id="bP38wD7Q0idlnA3Jdsdp-39" value="飞车党主动下车 跟警察掩体对射" style="rounded=0;whiteSpace=wrap;html=1;" vertex="1" parent="bP38wD7Q0idlnA3Jdsdp-42">
          <mxGeometry x="36" y="391" width="217" height="60" as="geometry" />
        </mxCell>
        <mxCell id="bP38wD7Q0idlnA3Jdsdp-45" value="逮捕或击杀&lt;div&gt;片段结束&lt;/div&gt;" style="ellipse;whiteSpace=wrap;html=1;aspect=fixed;" vertex="1" parent="1">
          <mxGeometry x="2856" y="2092" width="80" height="80" as="geometry" />
        </mxCell>
        <mxCell id="bP38wD7Q0idlnA3Jdsdp-47" value="路人看到载具生成" style="rounded=0;whiteSpace=wrap;html=1;" vertex="1" parent="1">
          <mxGeometry x="590" y="2359" width="120" height="60" as="geometry" />
        </mxCell>
        <mxCell id="bP38wD7Q0idlnA3Jdsdp-48" value="路人看到警察正在追击飞车党" style="rounded=0;whiteSpace=wrap;html=1;" vertex="1" parent="1">
          <mxGeometry x="590" y="2461" width="183" height="60" as="geometry" />
        </mxCell>
        <mxCell id="bP38wD7Q0idlnA3Jdsdp-49" value="路人看到警察布置路障" style="rounded=0;whiteSpace=wrap;html=1;" vertex="1" parent="1">
          <mxGeometry x="590" y="2560" width="183" height="60" as="geometry" />
        </mxCell>
      </root>
    </mxGraphModel>
  </diagram>
</mxfile>
